<svg width="272" height="50" viewBox="0 0 272 50" fill="none" xmlns="http://www.w3.org/2000/svg">
<path d="M52.709 39.5801C51.2207 39.5801 49.791 39.2871 48.4199 38.7012C47.0605 38.1152 45.8535 37.2715 44.7988 36.1699C43.7559 35.0684 42.9238 33.7266 42.3027 32.1445C41.6816 30.5508 41.3711 28.7578 41.3711 26.7656C41.3711 24.7734 41.6758 22.9688 42.2852 21.3516C42.8945 19.7227 43.7383 18.3223 44.8164 17.1504C45.8828 15.9902 47.1426 15.0938 48.5957 14.4609C50.0488 13.8281 51.6016 13.5117 53.2539 13.5117C54.4844 13.5117 55.5977 13.6641 56.5938 13.9688C57.5898 14.2734 58.5391 14.7012 59.4414 15.252L60.1621 14.0566H61.5684L61.7266 22.9512H60.2852C60.0977 22.084 59.8164 21.1465 59.4414 20.1387C59.0664 19.1191 58.627 18.2578 58.123 17.5547C57.5605 16.7578 56.8926 16.1367 56.1191 15.6914C55.3457 15.2344 54.4609 15.0059 53.4648 15.0059C52.3281 15.0059 51.2676 15.2578 50.2832 15.7617C49.3105 16.2656 48.4668 17.0098 47.752 17.9941C47.0723 18.9434 46.5391 20.1504 46.1523 21.6152C45.7656 23.0801 45.5723 24.7148 45.5723 26.5195C45.5723 28.1133 45.7715 29.5781 46.1699 30.9141C46.5801 32.2383 47.1602 33.4043 47.9102 34.4121C48.6602 35.4082 49.5449 36.1875 50.5645 36.75C51.5957 37.3125 52.7441 37.5938 54.0098 37.5938C54.959 37.5938 55.832 37.4473 56.6289 37.1543C57.4258 36.8496 58.1172 36.4512 58.7031 35.959C59.2891 35.4434 59.8047 34.8574 60.25 34.2012C60.6953 33.5449 61.0586 32.8301 61.3398 32.0566L62.6582 32.6895C61.6504 35.1621 60.3145 36.9316 58.6504 37.998C56.9863 39.0527 55.0059 39.5801 52.709 39.5801ZM77.6699 23.9004C77.6699 24.498 77.5234 25.0312 77.2305 25.5C76.9375 25.957 76.4863 26.1855 75.877 26.1855C75.2207 26.1855 74.7168 26.0156 74.3652 25.6758C74.0254 25.3359 73.8555 24.9609 73.8555 24.5508C73.8555 24.293 73.873 24.0586 73.9082 23.8477C73.9551 23.6367 73.9961 23.4258 74.0312 23.2148C73.4805 23.2148 72.8359 23.4375 72.0977 23.8828C71.3594 24.3281 70.7324 24.9609 70.2168 25.7812V35.8711C70.2168 36.2812 70.293 36.6152 70.4453 36.873C70.6094 37.1309 70.8613 37.3242 71.2012 37.4531C71.4941 37.5703 71.8691 37.6582 72.3262 37.7168C72.7949 37.7754 73.1992 37.8164 73.5391 37.8398V39H64.3984V37.8398C64.668 37.8164 64.9434 37.793 65.2246 37.7695C65.5176 37.7461 65.7695 37.6992 65.9805 37.6289C66.3086 37.5234 66.5488 37.3418 66.7012 37.084C66.8652 36.8145 66.9473 36.4688 66.9473 36.0469V25.3418C66.9473 24.9785 66.8594 24.6211 66.6836 24.2695C66.5195 23.918 66.2852 23.6367 65.9805 23.4258C65.7578 23.2852 65.4941 23.1855 65.1895 23.127C64.8848 23.0566 64.5566 23.0098 64.2051 22.9863V21.8438L69.9707 21.457L70.2168 21.7031V24.1465H70.3047C71.0312 23.1973 71.8398 22.4766 72.7305 21.9844C73.6211 21.4922 74.4355 21.2461 75.1738 21.2461C75.9121 21.2461 76.5098 21.4863 76.9668 21.9668C77.4355 22.4473 77.6699 23.0918 77.6699 23.9004ZM94.5625 34.9219C93.8359 36.3047 92.8633 37.4062 91.6445 38.2266C90.4258 39.0469 89.0254 39.457 87.4434 39.457C86.0488 39.457 84.8242 39.2109 83.7695 38.7188C82.7266 38.2266 81.8652 37.5586 81.1855 36.7148C80.5059 35.8711 79.9961 34.8867 79.6562 33.7617C79.3281 32.6367 79.1641 31.4473 79.1641 30.1934C79.1641 29.0684 79.3398 27.9668 79.6914 26.8887C80.0547 25.7988 80.582 24.8203 81.2734 23.9531C81.9414 23.1211 82.7676 22.4531 83.752 21.9492C84.748 21.4336 85.8613 21.1758 87.0918 21.1758C88.3574 21.1758 89.4414 21.375 90.3438 21.7734C91.2461 22.1719 91.9785 22.7168 92.541 23.4082C93.0801 24.0645 93.4785 24.8379 93.7363 25.7285C94.0059 26.6191 94.1406 27.5859 94.1406 28.6289V29.7891H82.6621C82.6621 30.9258 82.7676 31.957 82.9785 32.8828C83.2012 33.8086 83.5469 34.623 84.0156 35.3262C84.4727 36.0059 85.0703 36.5449 85.8086 36.9434C86.5469 37.3301 87.4258 37.5234 88.4453 37.5234C89.4883 37.5234 90.3848 37.2832 91.1348 36.8027C91.8965 36.3105 92.6289 35.4316 93.332 34.166L94.5625 34.9219ZM90.6777 28.3125C90.6777 27.6562 90.6191 26.9531 90.502 26.2031C90.3965 25.4531 90.2207 24.8262 89.9746 24.3223C89.7051 23.7832 89.3359 23.3438 88.8672 23.0039C88.3984 22.6641 87.7949 22.4941 87.0566 22.4941C85.8262 22.4941 84.8008 23.0098 83.9805 24.041C83.1719 25.0605 82.7324 26.4844 82.6621 28.3125H90.6777ZM122.389 22.793C121.896 22.8398 121.363 23.0449 120.789 23.4082C120.227 23.7715 119.816 24.3164 119.559 25.043C118.973 26.7656 118.416 28.4004 117.889 29.9473C117.373 31.4824 116.793 33.2109 116.148 35.1328C115.938 35.7422 115.721 36.3984 115.498 37.1016C115.287 37.8047 115.094 38.4785 114.918 39.123H113.406L108.748 26.3613L104.055 39.123H102.613C101.734 36.5215 100.873 33.9434 100.029 31.3887C99.1973 28.8223 98.459 26.5898 97.8145 24.6914C97.627 24.1406 97.2695 23.707 96.7422 23.3906C96.2148 23.0742 95.7051 22.8867 95.2129 22.8281V21.668H102.947V22.8984C102.561 22.9102 102.139 22.9746 101.682 23.0918C101.236 23.209 101.014 23.4023 101.014 23.6719C101.014 23.7188 101.031 23.8184 101.066 23.9707C101.113 24.123 101.166 24.2871 101.225 24.4629C101.6 25.6934 102.021 27.0703 102.49 28.5938C102.971 30.1055 103.586 32.0742 104.336 34.5L108.766 22.0195H110.453L114.971 34.3242C115.475 32.7539 115.973 31.2363 116.465 29.7715C116.969 28.2949 117.408 26.9121 117.783 25.623C117.865 25.3184 117.941 25.043 118.012 24.7969C118.094 24.5391 118.135 24.2871 118.135 24.041C118.135 23.8301 118.041 23.6426 117.854 23.4785C117.666 23.3145 117.438 23.1797 117.168 23.0742C116.934 22.9805 116.676 22.9102 116.395 22.8633C116.125 22.8164 115.926 22.793 115.797 22.793V21.668H122.389V22.793ZM134.465 39H123.232V37.752C123.549 37.7285 124.006 37.6934 124.604 37.6465C125.201 37.5996 125.623 37.5293 125.869 37.4355C126.256 37.2832 126.537 37.0781 126.713 36.8203C126.889 36.5508 126.977 36.1816 126.977 35.7129V17.6426C126.977 17.2324 126.912 16.8926 126.783 16.623C126.654 16.3418 126.35 16.1074 125.869 15.9199C125.518 15.7793 125.072 15.6504 124.533 15.5332C124.006 15.4043 123.572 15.3281 123.232 15.3047V14.0566H134.465V15.3047C134.102 15.3164 133.668 15.3633 133.164 15.4453C132.66 15.5156 132.221 15.6094 131.846 15.7266C131.4 15.8672 131.102 16.0957 130.949 16.4121C130.797 16.7285 130.721 17.0801 130.721 17.4668V35.5195C130.721 35.9062 130.803 36.252 130.967 36.5566C131.143 36.8496 131.436 37.084 131.846 37.2598C132.092 37.3535 132.49 37.459 133.041 37.5762C133.604 37.6816 134.078 37.7402 134.465 37.752V39ZM166.826 39H158.371V37.8398C158.641 37.8164 158.91 37.793 159.18 37.7695C159.461 37.7461 159.707 37.6992 159.918 37.6289C160.246 37.5234 160.486 37.3418 160.639 37.084C160.803 36.8145 160.885 36.4688 160.885 36.0469V27.0996C160.885 25.8809 160.604 24.9434 160.041 24.2871C159.49 23.6191 158.799 23.2852 157.967 23.2852C157.393 23.2852 156.854 23.373 156.35 23.5488C155.846 23.7246 155.383 23.9707 154.961 24.2871C154.621 24.5449 154.334 24.8262 154.1 25.1309C153.877 25.4238 153.707 25.6699 153.59 25.8691V35.8711C153.59 36.2812 153.66 36.6211 153.801 36.8906C153.941 37.1484 154.182 37.3477 154.521 37.4883C154.791 37.5938 155.031 37.6758 155.242 37.7344C155.465 37.7812 155.752 37.8164 156.104 37.8398V39H147.824V37.8398C148.094 37.8164 148.352 37.793 148.598 37.7695C148.855 37.7461 149.09 37.6992 149.301 37.6289C149.629 37.5234 149.869 37.3418 150.021 37.084C150.186 36.8145 150.268 36.4688 150.268 36.0469V27.0996C150.268 25.8809 149.986 24.9434 149.424 24.2871C148.873 23.6191 148.182 23.2852 147.35 23.2852C146.775 23.2852 146.236 23.3789 145.732 23.5664C145.229 23.7422 144.766 23.9883 144.344 24.3047C144.004 24.5625 143.717 24.8555 143.482 25.1836C143.248 25.5 143.072 25.7402 142.955 25.9043V35.8359C142.955 36.2344 143.037 36.5684 143.201 36.8379C143.365 37.1074 143.611 37.3125 143.939 37.4531C144.186 37.5703 144.438 37.6582 144.695 37.7168C144.953 37.7754 145.24 37.8164 145.557 37.8398V39H137.137V37.8398C137.406 37.8164 137.682 37.793 137.963 37.7695C138.256 37.7461 138.508 37.6992 138.719 37.6289C139.047 37.5234 139.287 37.3418 139.439 37.084C139.604 36.8145 139.686 36.4688 139.686 36.0469V25.2715C139.686 24.8965 139.598 24.5625 139.422 24.2695C139.258 23.9648 139.023 23.707 138.719 23.4961C138.496 23.3555 138.221 23.2441 137.893 23.1621C137.564 23.0684 137.225 23.0098 136.873 22.9863V21.8438L142.674 21.457L142.92 21.7031V24.1816H143.043C143.336 23.8887 143.693 23.543 144.115 23.1445C144.537 22.7461 144.93 22.4238 145.293 22.1777C145.703 21.8965 146.213 21.6621 146.822 21.4746C147.443 21.2871 148.111 21.1934 148.826 21.1934C149.951 21.1934 150.918 21.498 151.727 22.1074C152.535 22.7051 153.115 23.4316 153.467 24.2871C153.889 23.877 154.258 23.5195 154.574 23.2148C154.902 22.8984 155.33 22.5645 155.857 22.2129C156.303 21.9082 156.824 21.6621 157.422 21.4746C158.031 21.2871 158.705 21.1934 159.443 21.1934C160.908 21.1934 162.068 21.6738 162.924 22.6348C163.779 23.5957 164.207 25.0723 164.207 27.0645V35.8711C164.207 36.2812 164.277 36.6211 164.418 36.8906C164.559 37.1484 164.799 37.3477 165.139 37.4883C165.408 37.5938 165.672 37.6758 165.93 37.7344C166.199 37.7812 166.498 37.8164 166.826 37.8398V39ZM184.686 23.7246C185.377 24.5449 185.91 25.5 186.285 26.5898C186.672 27.668 186.865 28.9043 186.865 30.2988C186.865 31.6699 186.637 32.9238 186.18 34.0605C185.723 35.1855 185.119 36.1465 184.369 36.9434C183.584 37.752 182.711 38.373 181.75 38.8066C180.789 39.2402 179.77 39.457 178.691 39.457C177.648 39.457 176.793 39.3398 176.125 39.1055C175.457 38.8711 174.912 38.5957 174.49 38.2793H174.35V43.4824C174.35 43.9043 174.432 44.2559 174.596 44.5371C174.76 44.8184 175.012 45.0234 175.352 45.1523C175.633 45.2578 176.031 45.3574 176.547 45.4512C177.074 45.5566 177.508 45.6152 177.848 45.627V46.8047H168.162V45.627C168.525 45.6035 168.877 45.5742 169.217 45.5391C169.557 45.5039 169.861 45.4453 170.131 45.3633C170.482 45.2461 170.729 45.041 170.869 44.748C171.01 44.4551 171.08 44.1094 171.08 43.7109V25.2715C171.08 24.9199 170.992 24.5801 170.816 24.252C170.641 23.9238 170.412 23.6602 170.131 23.4609C169.92 23.3203 169.627 23.2148 169.252 23.1445C168.877 23.0625 168.514 23.0098 168.162 22.9863V21.8438L174.068 21.457L174.314 21.668V23.6191L174.455 23.6543C175.064 22.9512 175.82 22.3652 176.723 21.8965C177.625 21.4277 178.521 21.1934 179.412 21.1934C180.49 21.1934 181.475 21.4219 182.365 21.8789C183.268 22.3359 184.041 22.9512 184.686 23.7246ZM181.82 36.1875C182.289 35.4609 182.635 34.6172 182.857 33.6562C183.08 32.6953 183.191 31.623 183.191 30.4395C183.191 29.5723 183.098 28.6875 182.91 27.7852C182.723 26.8828 182.43 26.0977 182.031 25.4297C181.633 24.75 181.111 24.1992 180.467 23.7773C179.822 23.3555 179.049 23.1445 178.146 23.1445C177.279 23.1445 176.541 23.3379 175.932 23.7246C175.322 24.0996 174.795 24.5508 174.35 25.0781V35.3262C174.455 35.6426 174.625 35.9707 174.859 36.3105C175.105 36.6504 175.375 36.9434 175.668 37.1895C176.031 37.4824 176.424 37.7227 176.846 37.9102C177.268 38.0859 177.783 38.1738 178.393 38.1738C179.049 38.1738 179.682 38.0039 180.291 37.6641C180.9 37.3125 181.41 36.8203 181.82 36.1875ZM206.307 30.1582C206.307 31.377 206.113 32.5781 205.727 33.7617C205.34 34.9336 204.789 35.9297 204.074 36.75C203.266 37.6875 202.328 38.3848 201.262 38.8418C200.195 39.2988 199 39.5273 197.676 39.5273C196.574 39.5273 195.525 39.3223 194.529 38.9121C193.533 38.4902 192.648 37.8809 191.875 37.084C191.113 36.2988 190.504 35.3438 190.047 34.2188C189.602 33.082 189.379 31.8105 189.379 30.4043C189.379 27.6973 190.164 25.4824 191.734 23.7598C193.316 22.0371 195.385 21.1758 197.939 21.1758C200.365 21.1758 202.363 21.9961 203.934 23.6367C205.516 25.2656 206.307 27.4395 206.307 30.1582ZM202.668 30.1934C202.668 29.3145 202.58 28.3887 202.404 27.416C202.229 26.4316 201.965 25.5996 201.613 24.9199C201.238 24.1934 200.746 23.6133 200.137 23.1797C199.527 22.7344 198.783 22.5117 197.904 22.5117C197.002 22.5117 196.229 22.7344 195.584 23.1797C194.951 23.625 194.436 24.2344 194.037 25.0078C193.662 25.7227 193.398 26.5371 193.246 27.4512C193.094 28.3652 193.018 29.25 193.018 30.1055C193.018 31.2305 193.105 32.2734 193.281 33.2344C193.469 34.1836 193.762 35.0332 194.16 35.7832C194.559 36.5332 195.057 37.125 195.654 37.5586C196.264 37.9805 197.014 38.1914 197.904 38.1914C199.369 38.1914 200.529 37.4824 201.385 36.0645C202.24 34.6465 202.668 32.6895 202.668 30.1934ZM220.264 30.5098C220.744 30.9316 221.113 31.418 221.371 31.9688C221.629 32.5195 221.758 33.1934 221.758 33.9902C221.758 35.5957 221.154 36.9082 219.947 37.9277C218.752 38.9473 217.199 39.457 215.289 39.457C214.281 39.457 213.35 39.2754 212.494 38.9121C211.65 38.5488 211.047 38.2148 210.684 37.9102L210.332 39.0527H209.014L208.838 33.0234H210.051C210.145 33.4805 210.344 34.0137 210.648 34.623C210.953 35.2324 211.322 35.7832 211.756 36.2754C212.213 36.791 212.758 37.2246 213.391 37.5762C214.035 37.9277 214.756 38.1035 215.553 38.1035C216.678 38.1035 217.545 37.8516 218.154 37.3477C218.764 36.832 219.068 36.0996 219.068 35.1504C219.068 34.6582 218.969 34.2363 218.77 33.8848C218.582 33.5215 218.301 33.2051 217.926 32.9355C217.539 32.666 217.064 32.4258 216.502 32.2148C215.939 31.9922 215.312 31.7754 214.621 31.5645C214.07 31.4004 213.455 31.1777 212.775 30.8965C212.107 30.6035 211.533 30.2637 211.053 29.877C210.537 29.4668 210.115 28.9629 209.787 28.3652C209.459 27.7676 209.295 27.0645 209.295 26.2559C209.295 24.8379 209.822 23.6367 210.877 22.6523C211.932 21.668 213.344 21.1758 215.113 21.1758C215.793 21.1758 216.484 21.2637 217.188 21.4395C217.902 21.6152 218.482 21.8262 218.928 22.0723L219.332 21.1582H220.598L220.861 26.7305H219.648C219.402 25.4883 218.869 24.4805 218.049 23.707C217.24 22.9219 216.25 22.5293 215.078 22.5293C214.117 22.5293 213.361 22.7695 212.811 23.25C212.26 23.7305 211.984 24.3105 211.984 24.9902C211.984 25.5176 212.072 25.957 212.248 26.3086C212.436 26.6602 212.711 26.959 213.074 27.2051C213.426 27.4395 213.865 27.6621 214.393 27.873C214.932 28.0723 215.594 28.3008 216.379 28.5586C217.152 28.8047 217.879 29.0918 218.559 29.4199C219.25 29.748 219.818 30.1113 220.264 30.5098ZM235.1 38.2441C234.338 38.5605 233.617 38.8242 232.938 39.0352C232.258 39.2578 231.426 39.3691 230.441 39.3691C228.988 39.3691 227.963 39.0059 227.365 38.2793C226.779 37.541 226.486 36.5039 226.486 35.168V23.4258H223.357V21.7383H226.557V16.3418H229.756V21.7383H234.73V23.4258H229.791V33.1113C229.791 33.8379 229.814 34.4473 229.861 34.9395C229.92 35.4199 230.049 35.8418 230.248 36.2051C230.436 36.5449 230.717 36.8027 231.092 36.9785C231.467 37.1543 231.971 37.2422 232.604 37.2422C232.896 37.2422 233.324 37.2188 233.887 37.1719C234.461 37.1133 234.865 37.043 235.1 36.9609V38.2441ZM252.238 34.9219C251.512 36.3047 250.539 37.4062 249.32 38.2266C248.102 39.0469 246.701 39.457 245.119 39.457C243.725 39.457 242.5 39.2109 241.445 38.7188C240.402 38.2266 239.541 37.5586 238.861 36.7148C238.182 35.8711 237.672 34.8867 237.332 33.7617C237.004 32.6367 236.84 31.4473 236.84 30.1934C236.84 29.0684 237.016 27.9668 237.367 26.8887C237.73 25.7988 238.258 24.8203 238.949 23.9531C239.617 23.1211 240.443 22.4531 241.428 21.9492C242.424 21.4336 243.537 21.1758 244.768 21.1758C246.033 21.1758 247.117 21.375 248.02 21.7734C248.922 22.1719 249.654 22.7168 250.217 23.4082C250.756 24.0645 251.154 24.8379 251.412 25.7285C251.682 26.6191 251.816 27.5859 251.816 28.6289V29.7891H240.338C240.338 30.9258 240.443 31.957 240.654 32.8828C240.877 33.8086 241.223 34.623 241.691 35.3262C242.148 36.0059 242.746 36.5449 243.484 36.9434C244.223 37.3301 245.102 37.5234 246.121 37.5234C247.164 37.5234 248.061 37.2832 248.811 36.8027C249.572 36.3105 250.305 35.4316 251.008 34.166L252.238 34.9219ZM248.354 28.3125C248.354 27.6562 248.295 26.9531 248.178 26.2031C248.072 25.4531 247.896 24.8262 247.65 24.3223C247.381 23.7832 247.012 23.3438 246.543 23.0039C246.074 22.6641 245.471 22.4941 244.732 22.4941C243.502 22.4941 242.477 23.0098 241.656 24.041C240.848 25.0605 240.408 26.4844 240.338 28.3125H248.354ZM267.514 23.9004C267.514 24.498 267.367 25.0312 267.074 25.5C266.781 25.957 266.33 26.1855 265.721 26.1855C265.064 26.1855 264.561 26.0156 264.209 25.6758C263.869 25.3359 263.699 24.9609 263.699 24.5508C263.699 24.293 263.717 24.0586 263.752 23.8477C263.799 23.6367 263.84 23.4258 263.875 23.2148C263.324 23.2148 262.68 23.4375 261.941 23.8828C261.203 24.3281 260.576 24.9609 260.061 25.7812V35.8711C260.061 36.2812 260.137 36.6152 260.289 36.873C260.453 37.1309 260.705 37.3242 261.045 37.4531C261.338 37.5703 261.713 37.6582 262.17 37.7168C262.639 37.7754 263.043 37.8164 263.383 37.8398V39H254.242V37.8398C254.512 37.8164 254.787 37.793 255.068 37.7695C255.361 37.7461 255.613 37.6992 255.824 37.6289C256.152 37.5234 256.393 37.3418 256.545 37.084C256.709 36.8145 256.791 36.4688 256.791 36.0469V25.3418C256.791 24.9785 256.703 24.6211 256.527 24.2695C256.363 23.918 256.129 23.6367 255.824 23.4258C255.602 23.2852 255.338 23.1855 255.033 23.127C254.729 23.0566 254.4 23.0098 254.049 22.9863V21.8438L259.814 21.457L260.061 21.7031V24.1465H260.148C260.875 23.1973 261.684 22.4766 262.574 21.9844C263.465 21.4922 264.279 21.2461 265.018 21.2461C265.756 21.2461 266.354 21.4863 266.811 21.9668C267.279 22.4473 267.514 23.0918 267.514 23.9004Z" fill="#F5F1F1"/>
<rect width="27.5068" height="27.4937" transform="matrix(0.630944 -0.775829 0.642888 0.76596 0 28.5631)" fill="#F5F1F1"/>
<path d="M16.4 41.64C12.4267 41.64 9.17333 40.5067 6.64 38.24C4.13333 35.9467 2.88 32.76 2.88 28.68C2.88 24.6 4.13333 21.2 6.64 18.48C9.14667 15.7333 12.5067 14.36 16.72 14.36C18.3733 14.36 19.7867 14.4667 20.96 14.68C22.1333 14.8933 23.2 15.1067 24.16 15.32C25.12 15.5067 25.6667 15.6133 25.8 15.64C25.5333 18.5467 25.1733 20.8267 24.72 22.48L23.36 22.72C23.0133 19.8933 22.56 18.0667 22 17.24C20.72 16.5467 18.6933 16.2 15.92 16.2C13.1733 16.2 10.9867 17.2533 9.36 19.36C7.73333 21.4667 6.92 24.2133 6.92 27.6C6.92 30.9867 7.82667 33.8667 9.64 36.24C11.48 38.6133 13.8667 39.8 16.8 39.8C18.9067 39.8 20.5067 39.32 21.6 38.36C22.72 37.3733 23.6 35.7733 24.24 33.56L25.6 33.76C25.5733 35.76 25.2933 37.9467 24.76 40.32C22.1733 41.2 19.3867 41.64 16.4 41.64Z" fill="#1B3442"/>
<path d="M26.56 17.72V38.28C26.56 38.6533 26.5867 38.92 26.64 39.08C26.72 39.2133 26.88 39.3467 27.12 39.48C27.52 39.64 28.2133 39.8 29.2 39.96L29.64 40L29.36 41.32C27.5733 41.1067 26.0533 41 24.8 41C23.5733 41 22.0667 41.1067 20.28 41.32L20 40C21.76 39.7867 22.72 39.48 22.88 39.08C22.96 38.92 23 38.6533 23 38.28V17.72C23 17.3467 22.96 17.0933 22.88 16.96C22.8267 16.8 22.6667 16.6533 22.4 16.52C22.0267 16.36 21.36 16.2 20.4 16.04L20 16L20.28 14.68C22.0667 14.8933 23.5733 15 24.8 15C26.0533 15 27.5733 14.8933 29.36 14.68L29.64 16C27.8533 16.2133 26.8533 16.52 26.64 16.92C26.5867 17.08 26.56 17.3467 26.56 17.72Z" fill="#1B3442"/>
</svg>
